<?xml version="1.0" standalone="no"?>
<!DOCTYPE svg PUBLIC "-//W3C//DTD SVG 1.1//EN" "http://www.w3.org/Graphics/SVG/1.1/DTD/svg11.dtd" >
<svg xmlns="http://www.w3.org/2000/svg">
<metadata>Generated by IcoMoon</metadata>
<defs>
<font id="icomoon" horiz-adv-x="1024">
<font-face units-per-em="1024" ascent="960" descent="-64" />
<missing-glyph horiz-adv-x="1024" />
<glyph unicode="&#x20;" horiz-adv-x="512" d="" />
<glyph unicode="&#xe900;" glyph-name="add" d="M570.598 122.637c0-32.39-26.253-58.637-58.598-58.637v0c-32.41 0-58.662 26.253-58.662 58.637v650.726c0 32.384 26.253 58.637 58.662 58.637v0c32.352 0 58.598-26.253 58.598-58.637v-650.726zM837.338 506.63c32.41 0 58.662-26.246 58.662-58.63v0c0-32.378-26.253-58.63-58.662-58.63h-650.733c-32.352 0-58.605 26.253-58.605 58.63v0c0 32.384 26.253 58.63 58.605 58.63h650.733z" />
<glyph unicode="&#xe901;" glyph-name="callerId" d="M694.9 896h-364c-76.1 0-138.1-63.1-138.1-140.8v-614.5c0-77.6 61.9-140.7 138.1-140.7h363.9c76.2 0 138.2 63.1 138.2 140.7v614.5c0 77.7-62 140.8-138.1 140.8zM369.6 834.1c0 6.6 5.4 12 12 12h262.5c6.6 0 12-5.4 12-12v-4.5c0-6.6-5.4-12-12-12h-262.5c-6.6 0-12 5.4-12 12v4.5zM512.9 19.5c-17.7 0-32.1 14.4-32.1 32.1s14.4 32.1 32.1 32.1 32.1-14.4 32.1-32.1c0-17.8-14.3-32.1-32.1-32.1zM758.2 122.2c0-9.4-7.6-17-17-17h-459.7c-9.4 0-17 7.6-17 17v652.4c0 9.4 7.6 17 17 17h459.6c9.4 0 17-7.6 17-17v-652.4z" />
<glyph unicode="&#xe902;" glyph-name="clock" d="M703.804 338.249l-154.662 89.465v243.984c0 20.588-16.696 37.293-37.286 37.293-20.577 0-37.276-16.699-37.276-37.293v-261.073c0-13.835 17.192-25.437 28.373-31.85 3.094-4.653 11.595-8.876 16.78-11.859l153.806-93.247c17.818-10.286 37.132-4.168 47.42 13.65 10.29 17.842 0.708 40.629-17.155 50.931zM826.872 764.429c-84.525 84.486-196.855 131.039-316.403 131.039-119.509 0-231.859-46.554-316.344-131.056-84.519-84.525-131.059-196.935-131.059-316.487-0.025-119.575 46.483-231.943 130.99-316.528 84.474-84.45 196.836-131.009 316.331-131.009 119.548 0 231.949 46.585 316.485 131.098 174.409 174.475 174.442 458.391 0 632.943zM785.64 172.734c-73.523-73.529-171.274-114.063-275.254-114.063-103.908 0-201.635 40.515-275.111 113.973-73.468 73.512-113.929 171.278-113.907 275.283 0 103.993 40.474 201.768 113.968 275.252 73.49 73.495 171.184 113.959 275.132 113.959 103.955 0 201.667-40.465 275.171-113.964 151.692-151.771 151.692-398.725 0.001-550.44z" />
<glyph unicode="&#xe903;" glyph-name="close" d="M636.227 449.484l290.306 290.306c21.796 21.796 25.582 53.518 8.289 70.709l-63.341 63.341c-17.191 17.191-48.811 13.405-70.709-8.391l-290.203-290.306-290.306 290.306c-21.796 21.796-53.518 25.582-70.709 8.391l-63.341-63.341c-17.191-17.191-13.507-48.913 8.391-70.709l290.306-290.306-290.203-290.306c-21.796-21.796-25.582-53.415-8.391-70.709l63.341-63.341c17.191-17.191 48.913-13.507 70.709 8.289l290.306 290.306 290.203-290.306c21.898-21.898 53.518-25.582 70.709-8.391l63.341 63.341c17.191 17.191 13.507 48.913-8.289 70.709l-290.408 290.408z" />
<glyph unicode="&#xe904;" glyph-name="collectMaterials" d="M457.103-64c-17.025 0.128-30.777 13.959-30.777 31.002 0 11.061 5.793 20.769 14.51 26.256l0.129 0.076 158.411 97.255c5.089 3.805 11.506 6.093 18.457 6.093 17.122 0 31.003-13.88 31.003-31.003 0-12.086-6.916-22.557-17.006-27.671l-0.177-0.081-158.411-97.255c-4.579-2.913-10.154-4.65-16.133-4.672h-0.006zM457.103 454.978c-0.097-0.001-0.211-0.002-0.325-0.002-5.152 0-10.011 1.257-14.286 3.481l0.172-0.081-425.545 225.938c-9.764 5.349-16.273 15.555-16.273 27.28 0 11.895 6.699 22.225 16.529 27.424l0.169 0.081 424.695 217.444c4.132 2.179 9.030 3.457 14.227 3.457s10.095-1.279 14.397-3.539l-0.17 0.081 424.695-225.938c9.881-5.316 16.484-15.583 16.484-27.393s-6.603-22.077-16.319-27.312l-0.165-0.081-424.695-217.444c-3.95-2.064-8.615-3.31-13.562-3.397h-0.028zM98.66 709.795l358.867-190.263 358.018 185.592-358.867 188.989zM457.103-64c-5.984 0.046-11.553 1.779-16.267 4.747l0.128-0.075-424.695 261.188c-9.272 5.325-15.473 15.078-15.713 26.298l-0.001 0.034v483.303c0 0.051 0 0.111 0 0.171 0 17.122 13.88 31.003 31.003 31.003 5.281 0 10.254-1.321 14.606-3.649l-0.166 0.081 424.695-225.938c9.851-5.263 16.464-15.438 16.563-27.167v-518.992c0-17.122-13.88-31.003-31.003-31.003v0zM62.561 245.603l362.69-223.39v445.081l-362.69 192.812zM800.681 277.455c-0.048 0-0.105-0.001-0.162-0.001-3.198 0-6.213 0.786-8.862 2.174l0.105-0.050-203.429 107.873c-6.199 3.244-10.356 9.631-10.356 16.988s4.157 13.743 10.251 16.938l0.105 0.050 203.429 104.050c2.585 1.391 5.656 2.209 8.919 2.209s6.334-0.817 9.021-2.259l-0.102 0.050 203.429-107.873c6.199-3.244 10.356-9.631 10.356-16.988s-4.157-13.743-10.251-16.938l-0.105-0.050-205.552-103.201c-1.935-1.362-4.211-2.391-6.667-2.948l-0.128-0.024zM638.448 404.863l162.234-84.939 162.234 82.816-162.234 84.939zM800.681 29.008c-3.783 0.009-7.306 1.116-10.269 3.019l0.076-0.046-203.429 124.86c-5.386 3.435-8.908 9.374-8.919 16.137v231.461c0 0.025 0 0.055 0 0.085 0 10.555 8.556 19.111 19.111 19.111 3.262 0 6.334-0.817 9.021-2.259l-0.102 0.050 201.306-108.297c6.108-3.272 10.193-9.61 10.193-16.903 0-0.030 0-0.060 0-0.090v0.005-248.022c0-10.555-8.556-19.111-19.111-19.111v0zM616.364 184.022l165.206-101.502v202.58l-165.206 87.912zM800.681 29.008c-10.555 0-19.111 8.556-19.111 19.111v0 248.447c0 0.025 0 0.055 0 0.085 0 7.293 4.085 13.631 10.091 16.853l0.102 0.050 203.429 107.873c2.585 1.391 5.656 2.209 8.919 2.209 10.555 0 19.111-8.556 19.111-19.111 0-0.030 0-0.060 0-0.090v0.005-231.034c-0.010-6.764-3.533-12.704-8.842-16.092l-0.077-0.046-203.429-124.86c-2.853-2.002-6.363-3.252-10.157-3.396l-0.035-0.001zM819.793 283.825v-202.58l165.206 101.502v189.839zM274.909 404.439l-61.581 37.798v174.974l415.352 229.76 66.677-33.976-420.448-232.308v-176.249z" />
<glyph unicode="&#xe905;" glyph-name="delete" d="M791.273 110.545c0-32.070-26.089-58.182-58.182-58.182h-418.909c-32.117 0.040-58.142 26.065-58.182 58.178v616.731h535.273v-616.727zM372.364 832c0 6.427 5.21 11.636 11.636 11.636v0h279.273c6.427 0 11.636-5.21 11.636-11.636v-34.909h-302.545v34.909zM965.818 797.091h-221.091v34.909c0 44.916-36.538 81.455-81.455 81.455h-279.273c-44.916 0-81.455-36.538-81.455-81.455v-34.909h-221.091c-19.28 0-34.909-15.629-34.909-34.909s15.629-34.909 34.909-34.909h104.727v-616.727c0-70.586 57.437-128 128-128h418.909c70.563 0 128 57.414 128 128v616.727h104.727c19.28 0 34.909 15.629 34.909 34.909s-15.629 34.909-34.909 34.909v0zM523.636 157.091c19.28 0 34.909 15.629 34.909 34.909v0 372.364c0 19.28-15.629 34.909-34.909 34.909s-34.909-15.629-34.909-34.909v-372.364c0-19.28 15.629-34.909 34.909-34.909v0zM360.727 157.091c19.28 0 34.909 15.629 34.909 34.909v0 372.364c0 19.28-15.629 34.909-34.909 34.909s-34.909-15.629-34.909-34.909v-372.364c0-19.28 15.629-34.909 34.909-34.909v0zM686.545 157.091c19.28 0 34.909 15.629 34.909 34.909v0 372.364c0 0.002 0 0.004 0 0.006 0 19.28-15.629 34.909-34.909 34.909s-34.909-15.629-34.909-34.909c0-0.002 0-0.004 0-0.006v0-372.364c0-19.28 15.629-34.909 34.909-34.909v0z" />
<glyph unicode="&#xe906;" glyph-name="delivery" d="M512 448c-122.105 0-221.091 98.986-221.091 221.091s98.986 221.091 221.091 221.091c122.105 0 221.091-98.986 221.091-221.091v0c-0.264-121.999-99.092-220.827-221.065-221.091h-0.026zM512 844.102c-96.399 0-174.545-78.147-174.545-174.545s78.147-174.545 174.545-174.545c96.399 0 174.545 78.147 174.545 174.545v0c-0.264 96.292-78.253 174.281-174.52 174.545h-0.025zM906.705 70.982h-139.636v46.545h100.073l-161.047 279.273c-56.378-28.621-122.929-45.386-193.396-45.386s-137.019 16.766-195.883 46.526l2.486-1.14-161.047-279.273h131.724v-46.545h-172.684c-12.793 0.079-23.133 10.468-23.133 23.272 0 4.285 1.158 8.299 3.178 11.747l-0.059-0.11 192.233 333.265c4.074 7.109 11.617 11.822 20.261 11.822 4.185 0 8.112-1.105 11.505-3.038l-0.115 0.060c54.826-31.504 120.545-50.085 190.604-50.085s135.778 18.581 192.497 51.085l-1.894-1c3.314 1.985 7.311 3.16 11.582 3.16 2.173 0 4.275-0.304 6.266-0.872l-0.161 0.039c5.987-1.67 10.887-5.51 13.905-10.598l0.059-0.108 192.233-333.265c1.96-3.338 3.118-7.352 3.118-11.637 0-12.804-10.34-23.193-23.125-23.272h-0.008zM733.091 645.818h-442.182v23.273c0 122.234 99.090 221.324 221.324 221.324s221.324-99.090 221.324-221.324v0zM338.851 692.364h346.298c-11.316 86.451-84.518 152.511-173.149 152.511s-161.833-66.060-173.055-151.629l-0.095-0.883zM202.473 692.364h111.709v-46.545h-111.709zM698.182 5.353h-335.127c-12.853 0-23.273 10.42-23.273 23.273v0 131.724c0 12.853 10.42 23.273 23.273 23.273h335.127c12.853 0 23.273-10.42 23.273-23.273v0-131.258c0.003-0.139 0.005-0.302 0.005-0.465 0-12.853-10.42-23.273-23.273-23.273-0.002 0-0.003 0-0.005 0v0zM387.724 51.898h287.185v85.178h-288.582zM640.931 135.68h-222.022c-12.853 0-23.273 10.42-23.273 23.273v0 102.865c0 12.853 10.42 23.273 23.273 23.273v0h222.022c12.853 0 23.273-10.42 23.273-23.273v0-101.935c0.012-0.278 0.019-0.604 0.019-0.931 0-12.853-10.42-23.273-23.273-23.273-0.007 0-0.013 0-0.020 0h0.001zM442.182 182.225h175.476v55.389h-175.942z" />
<glyph unicode="&#xe907;" glyph-name="disableVoice" d="M741.547 443.307c0 11.782-9.551 21.333-21.333 21.333s-21.333-9.551-21.333-21.333v0c-0.678-102.46-83.894-185.258-186.45-185.258-49.812 0-95.062 19.534-128.508 51.358l0.078-0.073c-3.854 3.75-9.124 6.063-14.933 6.063-11.831 0-21.423-9.591-21.423-21.423 0-6.022 2.485-11.463 6.485-15.355l0.005-0.005c36.146-34.841 83.911-57.847 136.931-62.655l0.882-0.065v-88.32h-65.28c-11.782 0-21.333-9.551-21.333-21.333s9.551-21.333 21.333-21.333h170.667c11.782 0 21.333 9.551 21.333 21.333s-9.551 21.333-21.333 21.333h-64v88.32c117.057 10.838 208.019 108.472 208.213 227.394v0.020zM396.373 507.307c11.782 0 21.333 9.551 21.333 21.333v0 145.493c0.148 51.965 42.307 94.034 94.293 94.034 19.568 0 37.745-5.961 52.812-16.166l-0.332 0.212c3.376-2.202 7.508-3.513 11.947-3.513 12.19 0 22.073 9.882 22.073 22.073 0 7.752-3.996 14.57-10.041 18.508l-0.085 0.052c-21.435 14.575-47.889 23.271-76.373 23.271-75.572 0-136.849-61.208-136.96-136.754v-145.931c-0.024-0.383-0.038-0.83-0.038-1.28 0-11.782 9.551-21.333 21.333-21.333 0.014 0 0.027 0 0.041 0h-0.002zM384 399.36c18.846-54.332 69.592-92.64 129.286-92.64 74.974 0 135.834 60.431 136.527 135.241v223.639l58.027 58.027c3.876 3.876 6.274 9.232 6.274 15.147 0 11.83-9.59 21.421-21.421 21.421-5.915 0-11.27-2.398-15.147-6.274l-64-64-296.107-295.68c-3.876-3.876-6.274-9.232-6.274-15.147 0-11.83 9.59-21.421 21.421-21.421 5.915 0 11.27 2.398 15.147 6.274v0zM607.147 442.027c0.056-1.21 0.087-2.628 0.087-4.053 0-51.889-42.065-93.954-93.954-93.954-50.464 0-91.635 39.785-93.86 89.7l-0.007 0.2 187.733 187.733z" />
<glyph unicode="&#xe908;" glyph-name="downRow" d="M542.144 928v-837.568l405.248 403.712 44.48-44.608-481.536-481.536-478.144 478.144 44.544 46.080 401.792-401.792v837.568h63.616z" />
<glyph unicode="&#xe909;" glyph-name="edit" d="M352.582 402.877c-0.517-0.646-1.164-1.422-1.293-2.327l-42.537-155.927c-2.457-9.051 0.129-18.877 6.723-25.729 5.042-4.913 11.636-7.628 18.747-7.628 2.327 0 4.655 0.259 6.982 0.905l154.764 42.149c0.259 0 0.388-0.259 0.517-0.259 1.81 0 3.491 0.646 4.784 1.939l413.867 413.737c12.283 12.283 19.006 29.091 19.006 47.321 0 20.687-8.792 41.374-24.178 56.63l-39.046 39.176c-15.257 15.515-35.943 24.307-56.63 24.307-18.23 0-35.038-6.723-47.321-19.006l-413.737-413.867c-0.517-0.388-0.388-1.034-0.646-1.422zM874.667 710.465l-41.115-41.115-66.586 67.749 40.469 40.469c6.465 6.465 18.877 5.56 26.117-1.939l39.176-39.176c4.137-4.137 6.465-9.438 6.465-14.869-0.129-4.267-1.681-8.275-4.525-11.119zM426.149 396.412l298.667 298.667 66.715-67.749-298.149-298.149-67.232 67.232zM371.717 275.265l21.592 79.257 57.535-57.535-79.127-21.721zM900.913 546.521c-15.644 0-28.574-12.8-28.574-28.574v-385.81c0-20.17-16.42-36.719-36.719-36.719h-652.671c-20.17 0-36.719 16.42-36.719 36.719v629.657c0 20.299 16.549 36.719 36.719 36.719h420.331c15.774 0 28.574 12.8 28.574 28.574s-12.8 28.574-28.574 28.574h-424.598c-49.261 0-89.471-40.081-89.471-89.471v-638.319c0-49.39 40.081-89.471 89.471-89.471h661.333c49.39 0 89.471 40.081 89.471 89.471v390.206c-0.129 15.644-12.929 28.444-28.574 28.444z" />
<glyph unicode="&#xe90a;" glyph-name="emoji" d="M512 873.984c-233.472 0-425.984-192.512-425.984-425.984s192.512-425.984 425.984-425.984c233.472 0 425.984 192.512 425.984 425.984s-192.512 425.984-425.984 425.984zM512 62.976c-212.992 0-385.024 172.032-385.024 385.024s172.032 385.024 385.024 385.024 385.024-172.032 385.024-385.024-172.032-385.024-385.024-385.024zM700.416 345.6c-45.056-57.344-114.688-94.208-188.416-94.208s-139.264 32.768-188.416 90.112c-8.192 8.192-20.48 12.288-28.672 4.096-8.192-4.096-8.192-20.48 0-28.672 53.248-69.632 131.072-106.496 217.088-106.496s167.936 40.96 221.184 106.496c8.192 8.192 4.096 20.48-4.096 28.672-12.288 8.192-24.576 8.192-28.672 0zM331.776 468.48c16.384 0 28.672 12.288 28.672 28.672v32.768c0 16.384-12.288 28.672-28.672 28.672s-32.768-8.192-32.768-24.576v-32.768c0-16.384 12.288-32.768 32.768-32.768zM688.128 468.48c16.384 0 28.672 12.288 28.672 28.672v32.768c0 16.384-12.288 28.672-28.672 28.672s-28.672-12.288-28.672-28.672v-32.768c0-12.288 12.288-28.672 28.672-28.672z" />
<glyph unicode="&#xe90b;" glyph-name="exclamation" d="M512 955.873c280.494 0 507.873-227.379 507.873-507.873s-227.379-507.873-507.873-507.873c-280.494 0-507.873 227.379-507.873 507.873s227.379 507.873 507.873 507.873zM512 274.033c-42.476 0-76.913-34.427-76.913-76.913 0-42.476 34.437-76.913 76.913-76.913s76.913 34.437 76.913 76.913c0 42.486-34.437 76.913-76.913 76.913zM509.788 334.162c36.588 0 66.243 29.665 66.243 66.243v309.146c0 36.588-29.655 66.243-66.243 66.243s-66.243-29.665-66.243-66.243v-309.146c0-36.588 29.655-66.243 66.243-66.243z" />
<glyph unicode="&#xe90c;" glyph-name="firstRow" d="M528.067 624.636c-4.401 4.401-10.132 6.55-15.965 6.55-5.322 0-10.643-1.944-14.941-5.731-1.33-0.819-2.456-1.842-3.582-2.968l-144.707-144.707c-8.801-8.801-8.801-23.026 0-31.827s23.436-8.801 32.237 0l109.093 108.684v-338.638c0-12.485 10.029-22.514 22.514-22.514s22.514 10.029 22.514 22.514v338.638l106.125-106.637c8.801-8.801 22.822-8.801 31.623 0s8.699 23.026-0.102 31.827l-144.809 144.809zM283.069 654.008h460.524c12.485 0 22.514 10.029 22.514 22.514s-10.029 22.514-22.514 22.514h-460.524c-12.485 0-22.514-10.029-22.514-22.514s10.029-22.514 22.514-22.514z" />
<glyph unicode="&#xe90d;" glyph-name="gou" d="M1004.503 693.174l-587.072-594.161-17.19-16.193-17.19 16.193-363.553 367.949 118.537 119.987 262.179-265.38 485.754 491.61 118.537-120.005z" />
<glyph unicode="&#xe90e;" glyph-name="height" d="M580.16 634.581c-31.893 35.285-77.483 55.552-125.056 55.552h-94.933c-47.573 0-93.163-20.267-125.077-55.552l-152.917-169.301c-7.637-8.469-7.275-21.419 0.747-29.44l52.075-52.011c4.203-4.181 9.771-6.635 15.829-6.229 5.909 0.192 11.477 2.816 15.36 7.275l109.739 125.44v-552.939c0-11.819 9.557-21.376 21.355-21.376h73.621c11.776 0 21.355 9.557 21.355 21.376v322.091h30.869v-322.091c0-11.819 9.557-21.376 21.355-21.376h73.557c11.797 0 21.333 9.557 21.291 21.376v552.917l109.76-125.419c3.925-4.459 9.515-7.083 15.424-7.275 5.717-0.448 11.627 2.069 15.787 6.229l52.011 52.011c8.085 8.043 8.363 20.971 0.725 29.44l-152.875 169.301zM666.24 430.208l-132.181 151.040c-5.803 6.699-15.296 9.045-23.552 5.931-8.32-3.136-13.845-11.115-13.845-20.011v-588.437h-30.912v322.112c0 11.819-9.557 21.376-21.355 21.376h-73.579c-11.776 0-21.355-9.557-21.355-21.376v-322.112h-30.869v588.459c0 8.896-5.504 16.896-13.824 20.011-8.32 3.093-17.728 0.747-23.595-5.952l-132.139-151.040-21.547 21.504 139.307 154.219c23.829 26.347 57.856 41.472 93.376 41.472h94.933c35.499 0 69.547-15.125 93.376-41.472l139.264-154.219-21.504-21.504zM926.016 960h-98.197c-11.797 0-21.376-9.557-21.376-21.376 0-11.776 9.557-21.355 21.376-21.355h76.8v-202.603h-52.203c-11.84 0-21.376-9.579-21.376-21.376 0-11.776 9.536-21.355 21.376-21.355h52.203v-202.581h-52.203c-11.84 0-21.376-9.557-21.376-21.355s9.536-21.376 21.376-21.376h52.203v-202.56h-52.203c-11.84 0-21.376-9.515-21.376-21.355s9.536-21.376 21.376-21.376h52.203v-202.603h-76.8c-11.819 0-21.376-9.557-21.376-21.355 0-11.819 9.557-21.376 21.376-21.376h98.176c11.797 0 21.333 9.557 21.355 21.376v981.269c0 11.797-9.536 21.355-21.333 21.355zM407.659 721.003c65.877 0 119.509 53.632 119.509 119.509s-53.632 119.488-119.509 119.488c-65.899 0-119.509-53.611-119.509-119.488 0-65.899 53.611-119.509 119.509-119.509zM407.659 917.269c42.325 0 76.779-34.411 76.779-76.757 0-42.325-34.453-76.779-76.779-76.779s-76.779 34.453-76.779 76.779c0 42.347 34.453 76.757 76.779 76.757z" />
<glyph unicode="&#xe90f;" glyph-name="iphone" d="M950.595 99.546l-42.042-41.905c-17.171-17.132-38.51-30.806-63.569-40.721-27.544-10.966-58.489-16.22-91.556-16.22-126.971-0.058-327.609 118.323-460.568 250.898-167.621 167.147-268.053 397.139-214.975 530.172 7.757 19.48 18.525 36.792 31.34 52l-0.035 0.069 2.724 4.397c1.213 1.987 2.628 3.784 4.224 5.377l44.116 43.953c11.181 11.241 29.348 11.241 40.526 0l192.903-192.376c11.179-11.107 11.179-29.2-0.035-40.37l-77.726-77.576c0 0-16.464-105.217 100.734-222.069 117.194-116.799 222.236-100.883 222.236-100.883l78.205 78.005c11.179 11.17 29.371 11.17 40.517 0l192.945-192.315c11.199-11.181 11.199-29.262 0.035-40.435v0z" />
<glyph unicode="&#xe910;" glyph-name="lastRow" d="M495.933 271.364c4.401-4.401 10.132-6.55 15.965-6.55 5.322 0 10.643 1.944 14.941 5.731 1.33 0.819 2.456 1.842 3.582 2.968l144.707 144.707c8.801 8.801 8.801 23.026 0 31.827s-23.436 8.801-32.237 0l-109.093-108.684v338.638c0 12.485-10.029 22.514-22.514 22.514s-22.514-10.029-22.514-22.514v-338.638l-106.125 106.637c-8.801 8.801-22.822 8.801-31.623 0s-8.699-23.026 0.102-31.827l144.809-144.809zM740.931 241.992h-460.524c-12.485 0-22.514-10.029-22.514-22.514s10.029-22.514 22.514-22.514h460.524c12.485 0 22.514 10.029 22.514 22.514s-10.029 22.514-22.514 22.514z" />
<glyph unicode="&#xe911;" glyph-name="msg" d="M945.684 871.385h-867.387c-43.166 0-78.297-40.468-78.297-90.23v-666.309c0-49.762 35.131-90.23 78.297-90.23h867.387c43.185 0 78.316 40.468 78.316 90.23v666.309c0 49.762-35.131 90.23-78.316 90.23v0zM78.297 820.795l869.849-5.868c9.964 0 18.964-7.326 18.964-18.806v-150.548l-455.109-225.792-455.109 225.792v131.722c0 11.481 11.441 43.5 21.406 43.5v0zM948.145 81.073h-872.29c-9.964 0-18.964 26.151-18.964 37.632v451.604l448.492-204.386c0.158-0.079 0.315-0.138 0.473-0.197 0.177-0.098 0.354-0.158 0.512-0.236 0.61-0.256 1.221-0.492 1.812-0.709v0c0.65-0.217 1.3-0.414 1.95-0.591 0.118-0.020 0.236-0.059 0.354-0.079 1.319-0.335 2.639-0.551 3.958-0.67 0.138-0.020 0.256-0.039 0.374-0.039 0.67-0.059 1.339-0.079 1.989-0.079h0.020c0.67 0 1.319 0.020 1.989 0.079 0.138 0 0.256 0.020 0.394 0.039 1.339 0.118 2.658 0.354 3.978 0.67 0.138 0.039 0.256 0.059 0.374 0.098 1.28 0.335 2.54 0.788 3.801 1.319 0.158 0.059 0.315 0.138 0.473 0.217 0.177 0.079 0.374 0.158 0.571 0.256l435.358 209.014 3.348-456.31c0-11.481 9.964-37.632 0-37.632h-18.964z" />
<glyph unicode="&#xe912;" glyph-name="ninicall" d="M184.32 438.784v254.976c-3.584 0-7.168 0-10.752-0.512 57.856 125.44 186.88 212.992 336.896 212.992s279.040-87.552 336.896-212.992c-3.584 0.512-7.168 0.512-10.752 0.512v-255.488c72.192 0 130.56 57.344 130.56 127.488 0 47.616-27.136 89.6-66.56 111.616-56.32 158.208-209.408 271.36-389.632 271.36-180.736 0-333.824-113.664-389.632-271.36-39.936-22.016-66.56-63.488-66.56-111.616-1.024-70.144 57.344-126.976 129.536-126.976zM798.208 230.4c90.624-54.272 146.432-135.168 160.768-232.96h-893.952c6.656 47.104 22.528 90.624 48.128 129.024 27.136 40.96 64 75.776 110.080 103.936 81.92-63.488 182.272-97.792 287.232-97.792 104.96-0.512 205.824 34.304 287.744 97.792zM792.064 292.352c-73.728-67.584-173.056-108.544-281.6-108.544s-207.872 40.96-281.6 108.544c-132.096-67.072-218.624-185.344-218.624-346.112h1003.52c0 161.28-88.064 279.552-221.696 346.112zM510.464 770.048c127.488 0 231.424-100.864 231.424-225.28s-103.936-225.28-231.424-225.28c-127.488 0-231.424 100.864-231.424 225.28 0 123.904 103.936 225.28 231.424 225.28zM510.464 821.248c-156.16 0-282.624-123.904-282.624-276.48s126.464-276.48 282.624-276.48c156.16 0 282.624 123.904 282.624 276.48-0.512 152.576-126.976 276.48-282.624 276.48z" />
<glyph unicode="&#xe913;" glyph-name="notice" d="M192 224v320c0 154.816 109.952 283.936 256 313.6v38.4c0 35.36 28.64 64 64 64s64-28.64 64-64v-38.4c146.048-29.664 256-158.784 256-313.6v-320h32.096c35.296 0 63.904-28.416 63.904-64 0-35.36-28.64-64-63.904-64h-704.192c-35.296 0-63.904 28.416-63.904 64 0 35.36 28.64 64 63.904 64h32.096zM608 32c0-53.024-42.976-96-96-96s-96 42.976-96 96h192z" />
<glyph unicode="&#xe914;" glyph-name="order" d="M986.193 256.083c8.638-8.637 8.638-22.641 0.001-31.277l-281.872-281.872c-8.637-8.637-22.641-8.637-31.278 0.001v0c-8.637 8.636-8.637 22.641 0 31.276l281.872 281.872c8.638 8.638 22.641 8.638 31.277 0v0zM702.915-57.065c-8.638-8.638-22.641-8.638-31.278-0.001l-133.116 133.116c-8.637 8.637-8.637 22.642 0.001 31.278v0c8.636 8.637 22.641 8.637 31.277-0.001l133.116-133.116c8.638-8.637 8.637-22.641 0-31.276v0zM706.456 711.019c0-12.216-9.902-22.118-22.116-22.118h-398.627c-12.215 0-22.117 9.903-22.117 22.118v0c0 12.214 9.903 22.116 22.117 22.116h398.627c12.214 0.001 22.116-9.902 22.116-22.116v0zM706.456 467.247c0-12.216-9.902-22.118-22.116-22.118h-398.627c-12.215 0-22.117 9.903-22.117 22.118v0c0 12.214 9.903 22.116 22.117 22.116h398.627c12.214 0 22.116-9.903 22.116-22.116v0zM496.084 238.872c0-12.216-9.902-22.118-22.116-22.118h-188.255c-12.215 0-22.117 9.903-22.117 22.118v0c0 12.214 9.903 22.116 22.117 22.116h188.255c12.214 0 22.116-9.903 22.116-22.116v0zM810.327 959.545h-648.537c-71.938 0-130.464-58.526-130.464-130.464v-762.109c0-71.938 58.526-130.464 130.464-130.464h355.276c0.474-0.030 0.95-0.050 1.431-0.050 12.446 0 22.537 10.091 22.537 22.537 0 12.008-9.393 21.82-21.231 22.496-0.006 0.014-0.012 0.028-0.017 0.041h-357.995c-47.111 0-85.439 38.328-85.439 85.439v762.109c0 47.111 38.328 85.439 85.439 85.439h648.537c47.111 0 85.439-38.328 85.439-85.439v-467.611c-0.030-0.472-0.049-0.947-0.049-1.425 0-12.446 10.090-22.537 22.537-22.537s22.537 10.091 22.537 22.537v469.036c0 71.938-58.526 130.465-130.464 130.465z" />
<glyph unicode="&#xe915;" glyph-name="password" d="M511.611 402.212c-45.737 0-82.944-37.212-82.944-82.949 0-18.181 5.775-35.451 16.722-49.925 0.225-0.312 0.481-0.604 0.732-0.911 20.49-23.88 21.98-40.924 22.072-42.486v-47.375c0-23.946 19.482-43.418 43.418-43.418 23.946 0 43.423 19.487 43.423 43.418v48.266c0 0.543-0.015 1.091-0.072 1.628 0 0.036 0.108 0.005 0.113 0.046 0.113 1.091 0.481 3.42 1.592 6.789 2.232 6.769 7.47 17.874 19.799 32.292 0.179 0.21 0.353 0.43 0.527 0.64 11.5 14.7 17.577 32.348 17.577 51.036 0 45.737-37.212 82.949-82.959 82.949v0zM547.651 291.64c-29-34.074-30.418-58.476-30.147-65.3v-47.78c0-3.246-2.647-5.883-5.893-5.883s-5.883 2.642-5.883 5.883v47.606c0 3.502-0.963 31.304-30.705 66.212-5.775 7.823-8.827 17.106-8.827 26.885 0 25.047 20.372 45.425 45.414 45.425 25.047 0 45.43-20.378 45.43-45.425 0-10.102-3.246-19.645-9.39-27.622v0zM547.651 291.64v0zM827.392 560.942h-2.36v0.276h-43.674v120.33c0 0.794-0.056 1.592-0.148 2.391-8.207 64.082-39.47 123.075-88.033 166.139-48.993 43.433-112.082 67.354-177.608 67.354-71.542 0-138.798-27.858-189.389-78.438-50.586-50.586-78.438-117.847-78.438-189.384v-88.643l-51.133-0.026c-35.338 0-64.092-28.754-64.092-64.097v-454.185c0-35.338 28.754-64.092 64.092-64.092h391.603c0.558 0 1.132 0.026 1.684 0.082h235.807c0.553-0.056 1.121-0.082 1.69-0.082 35.333 0 64.092 28.749 64.092 64.092v454.185c-0.005 35.338-28.754 64.097-64.092 64.097v0zM285.302 649.61c0 61.512 23.951 119.332 67.441 162.816 43.484 43.494 101.309 67.446 162.816 67.446 56.34 0 110.572-20.567 152.684-57.902 41.472-36.772 68.27-87.025 75.54-141.635v-119.122l-458.481-0.276v88.673zM853.908 42.66c0-13.957-10.829-25.426-24.525-26.445l-632.776-0.077c-14.623 0-26.527 11.894-26.527 26.522v454.185c0 14.628 11.899 26.532 26.527 26.532l69.919 0.036c0.957 0 1.894 0.097 2.811 0.23 1.009-0.159 2.038-0.276 3.092-0.276h354.586c0.343-0.005 0.87-0.015 1.556-0.015 1.48 0 3.738 0.036 6.63 0.184h125.338c0.778-0.097 1.572-0.159 2.371-0.159h64.481c14.618 0 26.522-11.909 26.522-26.532v-454.185h-0.005zM853.908 42.66v0z" />
<glyph unicode="&#xe916;" glyph-name="permission" d="M270.848-28.16h483.328c78.336 0 142.336 66.048 142.336 144.384v312.832c0 78.336-61.44 142.336-143.36 142.336v115.2c-0.512 134.144-102.4 237.568-233.472 237.568h-4.608c-134.656 0-244.224-106.496-244.224-238.080 0-15.872 12.8-28.16 28.672-28.16s28.16 12.288 28.16 28.16c0 98.816 85.504 181.76 186.88 181.76h4.608c99.84 0 176.64-78.848 176.64-181.248v-115.712h-424.96c-78.336 0-142.848-64-142.848-142.336v-312.832c0-77.824 64.512-143.872 142.848-143.872zM839.68 118.272c0-47.104-38.4-84.992-84.992-84.992h-484.864c-47.104 0-85.504 38.4-85.504 84.992v310.784c0 47.104 38.4 85.504 85.504 85.504h484.864c47.104 0 84.992-38.4 84.992-85.504v-310.784zM471.040 231.936v-60.928c0-22.528 16.896-40.448 39.424-40.448h3.584c22.528 0 38.912 17.92 38.912 40.448v60.928c30.72 14.848 45.568 43.008 45.568 75.776 0 48.128-38.4 87.040-86.528 87.040s-86.016-38.912-86.016-87.040c0-32.256 19.456-60.928 45.056-75.776z" />
<glyph unicode="&#xe917;" glyph-name="phone" d="M950.595 99.546l-42.042-41.905c-17.171-17.132-38.51-30.806-63.569-40.721-27.544-10.966-58.489-16.22-91.556-16.22-126.971-0.058-327.609 118.323-460.568 250.898-167.621 167.147-268.053 397.139-214.975 530.172 7.757 19.48 18.525 36.792 31.34 52l-0.035 0.069 2.724 4.397c1.213 1.987 2.628 3.784 4.224 5.377l44.116 43.953c11.181 11.241 29.348 11.241 40.526 0l192.903-192.376c11.179-11.107 11.179-29.2-0.035-40.37l-77.726-77.576c0 0-16.464-105.217 100.734-222.069 117.194-116.799 222.236-100.883 222.236-100.883l78.205 78.005c11.179 11.17 29.371 11.17 40.517 0l192.945-192.315c11.199-11.181 11.199-29.262 0.035-40.435v0z" />
<glyph unicode="&#xe918;" glyph-name="pic" d="M679.528 369.607l-109.433-108.3c-0.098-0.098-0.287-0.189-0.379-0.287-8.595-8.594-8.595-22.569 0-31.254 8.59-8.588 22.563-8.588 31.254 0 0.568 0.568 0.752 1.322 1.32 1.891l97.162 97.252c0 0 21.433-20.11 21.908-19.828 8.211-3.868 18.22-2.643 24.924 4.16 8.594 8.588 8.594 22.561 0 31.248v0 0l-15.578 15.584c0 0-2.929 3.301-4.532 4.91-12.842 12.743-32.39 14.254-46.646 4.624v0zM767.529 260.928v0l10.009-10.106c8.595-8.588 22.57-8.588 31.255 0 8.595 8.595 8.595 22.567 0 31.255v0 0l-10.102 10.105-0.097-0.097c-0.093 0.097-0.188 0.282-0.28 0.379-8.594 8.592-22.569 8.592-31.254 0-8.595-8.594-8.595-22.569 0-31.255 0.187-0.092 0.28-0.189 0.469-0.281v0zM836.462 889.5h-648.122c-65.15 0-117.84-52.688-117.84-117.84v-648.122c0-65.053 52.781-117.839 117.84-117.839h648.122c65.053 0 117.839 52.786 117.839 117.839v648.122c0 65.152-52.786 117.84-117.839 117.84v0zM895.379 123.538c0-32.572-26.345-58.917-58.917-58.917h-648.122c-32.579 0-58.918 26.345-58.918 58.917v69.873l156.738 150.039c5.289 4.44 8.687 4.723 13.976 0.097l120.39-98.483c10.386-7.272 21.719-16.336 30.593-16.336 8.876 0 19.453 3.019 30.878 14.445l218.777 218.782c1.136-0.097 2.268-0.379 3.495-0.379 0.379 0 0.756 0.093 1.135 0.093l189.976-203.954v-134.177h-0.001zM895.379 344.206l-157.306 168.828c-5.666 13.029-18.604 22.191-33.805 22.191-13.597 0-25.307-7.363-31.633-18.318l-215.281-215.282c-6.235-4.44-6.235-4.44-13.035 0l-122.183 99.993c-6.703 8.967-17.373 14.821-29.365 14.821-6.136 0-11.899-1.696-16.994-4.341l-5.762-3.687c-1.886-1.415-3.495-3.109-5.099-4.813l-135.495-129.83v497.892c0 32.579 26.339 58.918 58.918 58.918h648.122c32.572 0 58.917-26.339 58.917-58.918v-427.454h0.001zM335.641 742.2c-48.816 0-88.379-39.563-88.379-88.379s39.563-88.379 88.379-88.379c48.816 0 88.379 39.563 88.379 88.379s-39.563 88.379-88.379 88.379v0zM335.641 624.36c-16.243 0-29.462 13.219-29.462 29.461 0 16.238 13.219 29.46 29.462 29.46 16.237 0 29.461-13.223 29.461-29.46 0-16.242-13.224-29.461-29.461-29.461v0z" />
<glyph unicode="&#xe919;" glyph-name="purse" d="M510.686 896.891c-247.473 0-448.841-201.040-448.841-448.176s201.362-448.182 448.841-448.182c247.472 0 448.839 201.045 448.839 448.182s-201.363 448.176-448.839 448.176v0 0 0 0 0zM510.686 48.615c-220.933 0-400.662 179.492-400.662 400.099 0 220.613 179.729 400.079 400.662 400.079s400.661-179.466 400.661-400.079-179.729-400.099-400.661-400.099v0 0 0 0 0zM619.266 683.146l-71.278-131.146c-19.022-35.533-30.617-59.174-34.874-70.867h-1.238c-12.524 28.465-47.893 95.782-106.132 202.013h-67.042l124.665-213.827h-102.217v-47.272h119.817v-65.108h-119.813v-47.828h119.817v-94.829h59.439v94.834h115.586v47.823h-115.584v65.108h115.586v47.272h-99.19l125.865 213.827h-63.404z" />
<glyph unicode="&#xe91a;" glyph-name="setting" d="M396.8 80l41.6 48 6.4 6.4c38.4 35.2 99.2 32 134.4-6.4l41.6-48c22.4 6.4 44.8 16 64 25.6l-3.2 64v9.6c3.2 54.4 48 92.8 102.4 89.6l64-3.2c9.6 19.2 19.2 41.6 25.6 64l-48 41.6-6.4 6.4c-35.2 38.4-32 99.2 6.4 134.4l48 41.6c-6.4 22.4-16 44.8-25.6 64l-64-3.2h-9.6c-54.4 3.2-92.8 48-89.6 102.4l3.2 64c-19.2 9.6-41.6 19.2-64 25.6l-41.6-48-6.4-6.4c-38.4-35.2-99.2-32-134.4 6.4l-41.6 48c-16-6.4-38.4-16-64-28.8l3.2-64v-9.6c-3.2-54.4-48-92.8-102.4-89.6l-64 3.2c-9.6-19.2-19.2-41.6-25.6-64l48-41.6 6.4-6.4c35.2-38.4 32-99.2-6.4-134.4l-48-41.6c6.4-22.4 16-44.8 25.6-64l64 3.2h9.6c54.4-3.2 92.8-48 89.6-102.4l-3.2-64c22.4-6.4 41.6-12.8 64-22.4zM268.8 92.8l3.2 83.2c0 19.2-12.8 32-28.8 35.2h-3.2l-83.2-3.2c-12.8 0-22.4 6.4-28.8 16-22.4 35.2-38.4 73.6-48 115.2-3.2 12.8 0 22.4 9.6 32l64 57.6c12.8 12.8 12.8 32 3.2 44.8l-3.2 3.2-64 57.6c-9.6 6.4-12.8 19.2-9.6 32 9.6 41.6 25.6 80 48 115.2 6.4 9.6 16 16 28.8 16l83.2-3.2c19.2 0 32 12.8 35.2 28.8v3.2l-3.2 83.2c0 12.8 6.4 25.6 19.2 28.8 48 25.6 86.4 38.4 115.2 48 12.8 3.2 22.4 0 32-9.6l57.6-64c12.8-12.8 32-12.8 44.8-3.2l3.2 3.2 57.6 64c6.4 9.6 19.2 12.8 32 9.6 41.6-9.6 80-25.6 115.2-48 9.6-6.4 16-16 16-28.8l-3.2-83.2c0-19.2 12.8-32 28.8-35.2h3.2l83.2 3.2c12.8 0 22.4-6.4 28.8-16 22.4-35.2 38.4-73.6 48-115.2 3.2-12.8 0-22.4-9.6-32l-64-57.6c-12.8-12.8-12.8-32-3.2-44.8l3.2-3.2 64-57.6c9.6-6.4 12.8-19.2 9.6-32-9.6-41.6-25.6-80-48-115.2-6.4-9.6-16-16-28.8-16l-83.2 3.2c-19.2 0-32-12.8-35.2-28.8v-3.2l3.2-83.2c0-12.8-6.4-22.4-16-28.8-35.2-22.4-73.6-38.4-115.2-48-12.8-3.2-22.4 0-32 9.6l-57.6 64c-12.8 12.8-32 12.8-44.8 3.2l-3.2-3.2-57.6-64c-6.4-9.6-19.2-12.8-32-9.6-41.6 9.6-80 25.6-115.2 48-12.8 3.2-19.2 16-19.2 28.8zM512 256c-105.6 0-192 86.4-192 192s86.4 192 192 192 192-86.4 192-192-86.4-192-192-192zM512 320c70.4 0 128 57.6 128 128s-57.6 128-128 128-128-57.6-128-128 57.6-128 128-128z" />
<glyph unicode="&#xe91b;" glyph-name="sex" d="M370.667 426.494h144.657v-34h-144.656v-180.507h-34v180.507h-149.668v34h149.667v86.661c-80.574 10.465-142.805 79.335-142.805 162.735 0 90.635 73.498 164.11 164.162 164.11 90.665 0 164.163-73.475 164.163-164.11 0-86.383-66.763-157.178-151.52-163.631v-85.765zM358.024 549.017c70.092 0 126.913 56.803 126.913 126.873s-56.821 126.872-126.913 126.872-126.912-56.803-126.912-126.872c0-70.070 56.82-126.873 126.912-126.873zM650.592 383.5v223.839l-136.65-134.592-24.942 26.659 180.667 185.608 167.816-187.607-29.376-24.66-123.515 134.591v-224.232c81.753-9.377 145.243-78.784 145.243-163.014 0-90.626-73.498-164.092-164.162-164.092s-164.163 73.466-164.163 164.092c0 85.543 65.487 155.798 149.082 163.409zM665.672 90.759c71.46 0 129.39 57.904 129.39 129.333s-57.93 129.333-129.39 129.333c-71.458 0-129.388-57.904-129.388-129.333s57.93-129.333 129.389-129.333z" />
<glyph unicode="&#xe91c;" glyph-name="signFor" d="M928.282 682.43l-76.079 146.396c-18.802 36.082-65.373 64.338-106.022 64.338h-467.771c-40.593 0-87.326-28.094-106.292-63.905l-76.023-143.407c-16.411-31.029-29.235-82.762-29.235-117.812v-481.738c0-46.027 37.386-83.468 83.467-83.468h723.339c46.027 0 83.469 37.442 83.469 83.468v478.314c0.001 34.997-12.66 86.785-28.854 117.814zM145.33 659.823l75.969 143.353c9.51 17.932 36.735 34.344 57.113 34.344h467.771c20.271 0 47.278-16.411 56.679-34.398l76.080-146.341c3.587-6.955 6.955-15.868 10.052-25.432h-754.804c3.37 10.705 7.065 20.813 11.141 28.475zM901.491 86.303c0-15.324-12.443-27.822-27.823-27.822h-723.34c-15.377 0-27.822 12.499-27.822 27.822v481.738c0 2.228 0.435 5.163 0.652 7.661h777.408c0.326-3.695 0.924-7.824 0.924-11.085v-478.314zM745.913 422.46l-140.148-149.712-56.568 56.461c-10.869 10.869-28.475 10.869-39.344 0s-10.868-28.475 0-39.342l76.297-76.080c5.435-5.434 12.499-8.151 19.617-8.151 3.859 0 7.661 0.978 11.304 2.608 4.075 1.413 7.878 3.587 11.030 6.902l158.46 169.273c10.488 11.194 9.89 28.801-1.304 39.343-11.196 10.434-28.802 9.889-39.344-1.304zM429.046 381.813h-166.99c-15.325 0-27.823-12.444-27.823-27.823s12.499-27.823 27.823-27.823h166.991c15.378 0 27.823 12.444 27.823 27.823s-12.444 27.823-27.824 27.823zM344.6 263.131h-83.468c-15.378 0-27.822-12.499-27.822-27.822 0-15.432 12.443-27.823 27.822-27.823h83.468c15.379 0 27.823 12.39 27.823 27.823 0 15.323-12.443 27.822-27.823 27.822z" />
<glyph unicode="&#xe91d;" glyph-name="task" d="M78.992 895.12h236.822v-236.814h-236.822v236.814zM315.814 1.344h-236.822v236.814h236.822v-236.814zM193.039 374.202l-14.938-17.306-116.065 100.229 36.727 42.521 75.322-65.053 140.727 140.044 39.636-39.827-161.409-160.608zM947.95 77.612h-546.199v84.274h546.199v-84.274zM947.95 417.559h-546.199v84.268h546.199v-84.268zM947.95 734.578h-546.199v84.274h546.199v-84.274z" />
<glyph unicode="&#xe91e;" glyph-name="trident" d="M93.218 368.566h345.070c16.507 0 26.412 13.422 26.412 26.356 0 16.507-13.422 26.356-26.412 26.356l-344.366-0.054c-1.461 0.324-2.976 0.541-4.437 0.541-11.582 0-22.622-11.582-22.622-23.867-0.001-15.641 12.285-29.333 26.355-29.333zM93.218 516.043h345.070c16.507 0 26.412 13.422 26.412 26.356 0 16.507-13.422 26.357-26.412 26.357l-344.366-0.055c-1.461 0.324-2.868 0.541-4.383 0.541-11.636 0-22.676-11.636-22.676-23.921-0.001-15.587 12.285-29.279 26.355-29.279zM143.333 663.465h345.069c16.507 0 26.412 13.422 26.412 26.356 0 16.507-13.422 26.357-26.412 26.357l-344.529-0.054c-1.678 0.379-3.41 0.54-4.978 0.54-13.747 0-21.919-12.123-21.919-23.867 0-17.264 10.879-29.333 26.357-29.333zM955.351 430.1c-0.595 1.19-1.19 2.327-1.19 3.138v0.867l-195.428 275.362c-6.712 6.712-13.584 6.712-19.645 6.712h-100.447v97.524c0 16.507-13.422 26.357-26.412 26.357h-395.076c-16.561 0-26.412-13.422-26.412-26.357s9.85-26.356 26.412-26.356h365.852v-389.448c0-16.507 13.313-26.357 26.302-26.357h292.194v-165.498h-48.113c-12.989 56.501-64.404 97.254-123.177 97.254-58.72 0-110.080-40.753-123.070-97.254h-196.131c-12.989 56.501-64.403 97.254-123.177 97.254-58.666 0-110.080-40.753-123.069-97.254h-71.492c-16.507 0-26.357-13.476-26.357-26.384 0-16.561 13.367-26.411 26.357-26.411h74.415c12.989-56.502 64.404-97.308 123.177-97.308 58.72 0 110.080 40.806 123.070 97.308h196.131c12.989-56.502 64.404-97.308 123.123-97.308s110.134 40.806 123.123 97.308h74.468c16.453 0 26.357 13.53 26.357 26.411v244.756c0.001 2.165-0.92 4.059-1.786 5.683zM638.641 424.255v239.21h87.242l170.044-239.21h-257.286zM804.139 176.737c0-39.833-31.173-71.006-70.951-71.006s-70.952 31.173-70.952 71.006c0 39.751 31.173 70.924 70.952 70.924s70.951-31.173 70.951-70.924zM361.762 176.737c0-39.833-31.174-71.006-70.898-71.006-39.832 0-71.006 31.173-71.006 71.006 0 39.751 31.174 70.924 71.006 70.924 39.725 0 70.898-31.173 70.898-70.924z" />
<glyph unicode="&#xe91f;" glyph-name="up" d="M752.64 583.68l-206.080 173.44c-19.2 16-50.56 16-69.76 0l-206.080-173.44c-30.72-26.24-8.96-71.040 34.56-71.040h78.72c0 0 0-0.64 0-0.64v-320c0-35.2 28.8-64 64-64h128c35.2 0 64 28.8 64 64v320c0 0 0 0.64 0 0.64h78.080c43.52 0 65.28 44.8 34.56 71.040z" />
<glyph unicode="&#xe920;" glyph-name="upRow" d="M481.856-32v837.568l-405.248-403.712-44.48 44.608 481.536 481.536 478.144-478.144-44.544-46.080-401.792 401.792v-837.568h-63.616z" />
<glyph unicode="&#xe921;" glyph-name="user" d="M515.528 426.597c-1.163 0.203-2.326 0.279-3.567 0.279-3.218 0-6.398 0-9.577-0.077-111.833 5.090-201.253 98.483-201.253 212.546 0 117.328 94.616 212.787 210.869 212.787 116.272 0 210.868-95.459 210.868-212.787 0-116.158-92.676-210.849-207.339-212.748v0zM511.999 894.71c-139.52 0-253.057-114.538-253.057-255.365 0-100.433 57.777-187.486 141.516-229.171-58.611-18.108-112.298-50.536-156.813-95.497-71.717-72.29-132.287-189.783-132.287-292.077 0-11.759 9.461-21.308 21.094-21.308s21.094 9.549 21.094 21.308c0 90.931 56.149 197.713 119.898 262.034 61.422 61.985 142.389 97.116 228.9 99.55 3.219-0.088 6.457-0.204 9.656-0.204 139.538 0 253.057 114.537 253.057 255.365s-113.52 255.365-253.059 255.365v0zM780.392 314.715c-8.258 8.336-21.597 8.336-29.858 0-8.201-8.29-8.201-21.793 0.039-30.081 63.711-64.321 119.918-171.103 119.918-262.034 0-11.759 9.423-21.308 21.076-21.308 11.672 0 21.075 9.549 21.075 21.308-0.001 102.293-60.569 219.786-132.25 292.115v0z" />
<glyph unicode="&#xe922;" d="M376.559 436.835c0-0.002 0-0.004 0-0.006 0-37.267 58.9-67.478 131.557-67.478s131.557 30.211 131.557 67.478c0 0.002 0 0.004 0 0.007v0c0 0.002 0 0.004 0 0.006 0 37.267-58.9 67.478-131.557 67.478s-131.557-30.211-131.557-67.478c0-0.002 0-0.004 0-0.007v0z" />
<glyph unicode="&#xe923;" d="M719.288 379.066v-83.012c0-21.36-16.991-38.836-38.351-38.836h-344.185c-21.36 0-38.351 17.476-38.351 38.836v83.012z" />
<glyph unicode="&#xe924;" d="M680.937 257.217h-344.671c-21.36 0-38.351 17.476-38.351 38.836v88.838h421.372v-88.838c0-21.36-16.991-38.836-38.351-38.836zM305.198 377.609v-81.556c0-17.476 14.078-31.554 31.069-31.554h344.671c16.991 0 31.069 14.078 31.069 31.554v81.556h-406.809z" />
<glyph unicode="&#xe925;" d="M317.819 365.473h378.652v-58.254c0-18.933-15.049-33.982-33.982-33.982h-310.689c-18.933 0-33.982 15.049-33.982 33.982v58.254z" />
<glyph unicode="&#xe926;" d="M428.988 426.64l80.1 179.132s53.4-119.421 80.585-179.617l-80.585-44.176-80.1 44.662z" />
<glyph unicode="&#xe927;" d="M446.949 440.718c20.874 46.118 62.138 138.354 62.138 138.354s41.749-92.721 62.623-138.839l-62.138-43.205-62.623 43.691z" />
<glyph unicode="&#xe928;" d="M498.893 581.499l-65.051-145.636-6.796 2.913 66.992 149.519 2.427 4.855c5.825-9.709 10.68-14.564 13.593-14.564s7.282 4.369 13.107 13.107l1.942-4.369 67.963-151.461-81.556-56.798-4.369 5.825 76.216 53.4-63.594 142.237c-4.369-3.884-7.767-5.34-10.194-5.34-1.942 0-5.34 2.427-10.68 6.311z" />
<glyph unicode="&#xe929;" d="M274.129 545.090l234.959-164.083h-208.259z" />
<glyph unicode="&#xe92a;" d="M288.207 520.818l205.832-143.694-176.219 3.398z" />
<glyph unicode="&#xe92b;" d="M276.070 541.207l28.156-156.315h193.695l-221.851 156.315zM520.738 377.124h-222.822l-30.098 162.141 18.933 4.369 233.988-166.51z" />
<glyph unicode="&#xe92c;" d="M744.531 544.119l-235.444-163.112h208.259z" />
<glyph unicode="&#xe92d;" d="M729.968 524.216l-195.637-141.266h165.054z" />
<glyph unicode="&#xe92e;" d="M742.104 537.809l-29.127-152.917h-193.21l218.939 155.83 3.398-2.913zM496.951 377.609h222.822l30.098 159.228-14.564 10.194-238.357-169.423z" />
<glyph unicode="&#xe92f;" d="M463.94 514.021l0.971-7.282c-36.409-5.825-66.992-18.447-84.469-34.467l-4.855 5.34c18.447 17.476 50.002 30.583 88.352 36.409zM643.557 477.127l-4.855-5.34c-16.991 16.020-46.603 28.642-83.012 34.467l0.971 7.282c37.38-6.311 68.934-19.418 86.896-36.409z" />
<glyph unicode="&#xe930;" d="M511.029 349.453l16.020-18.933c1.456-1.942 1.456-4.369 0-6.311l-16.020-18.933c-1.942-1.942-4.855-2.427-6.796-0.485l-0.485 0.485-16.020 18.933c-1.456 1.942-1.456 4.369 0 6.311l16.020 18.933c1.942 1.942 4.855 2.427 7.282 0 0 0.485 0 0.485 0 0z" />
<glyph unicode="&#xe931;" d="M511.029 341.201l8.738-10.194c1.456-1.942 1.456-4.369 0-6.311l-8.738-10.68c-1.942-1.942-4.855-2.427-6.796-0.485l-0.485 0.485-8.738 10.194c-1.456 1.942-1.456 4.369 0 6.311l8.738 10.68c1.942 1.942 4.855 2.427 7.282 0 0 0.485 0 0 0 0z" />
<glyph unicode="&#xe932;" d="M510.544 349.453c-0.485 0.485-0.485 0.485 0 0-1.942 1.942-4.369 1.456-5.825 0l-16.991-19.418c-0.971-1.456-0.971-3.398 0-4.855l16.505-19.418 0.485-0.485c1.456-1.456 3.884-0.971 5.34 0.485l16.991 19.904c0.971 1.456 0.971 3.398 0 4.855l-16.505 18.933zM532.389 334.89c3.398-3.884 3.398-10.194 0-14.078l-16.991-19.904c-3.884-4.369-10.68-5.34-15.534-1.456l-1.456 1.456-16.505 19.418c-3.398 3.884-3.398 10.194 0 14.078l16.991 19.904c3.884 4.369 10.68 5.34 15.534 1.456l1.456-1.456 16.505-19.418z" />
<glyph unicode="&#xe933;" d="M514.427 613.054l6.311-9.224c0.971-1.456 0.971-3.884 0-5.34l-6.311-9.709c-1.456-2.427-4.369-2.913-6.796-0.971l-0.971 0.971-6.311 9.224c-0.971 1.456-0.971 3.884 0 5.34l6.311 9.709c1.456 2.427 4.369 2.913 6.796 0.971l0.971-0.971z" />
<glyph unicode="&#xe934;" d="M507.145 581.499l0.971-0.971c1.456-0.971 3.884-0.971 5.34 0.971l12.622 17.476c0.485 1.456 0.485 2.913-0.485 4.369l-12.136 17.476-0.971 0.971c-1.456 0.971-3.884 0.971-5.34-0.971l-12.622-17.476c-0.971-1.456-0.971-2.913 0-4.369l12.622-17.476zM501.32 577.13l-12.136 17.476c-2.427 3.884-2.427 8.738 0 12.622l12.622 17.476c3.398 4.855 10.194 6.311 15.049 2.913 0.971-0.971 1.942-1.456 2.913-2.913l11.651-17.476c2.913-3.884 2.913-8.738 0-12.622l-12.622-17.476c-3.398-4.855-10.194-6.311-15.049-2.913-0.971 0.971-1.942 1.942-2.427 2.913z" />
<glyph unicode="&#xe935;" d="M269.274 574.217l9.709-6.311c1.942-0.971 2.427-2.913 1.942-5.34l-2.427-11.165c-0.485-2.427-2.913-4.369-5.825-3.884-0.485 0-0.971 0.485-1.456 0.485l-9.709 6.311c-1.456 1.456-2.427 3.398-1.942 5.34l2.427 11.165c0.485 2.427 2.913 4.369 5.825 3.884 0.485 0 0.971-0.485 1.456-0.485z" />
<glyph unicode="&#xe936;" d="M265.39 580.528c-0.485 0-0.971 0.485-0.971 0.485-1.942 0.485-3.884-0.971-4.369-2.913l-4.369-20.874c-0.485-1.456 0.485-2.913 1.456-3.884l17.962-11.165c0.485 0 0.971-0.485 0.971-0.485 1.942-0.485 3.884 0.971 4.369 2.913l4.369 20.874c0.485 1.456-0.485 2.913-1.456 3.884l-17.962 11.165zM287.236 575.188c3.884-2.427 5.825-7.282 4.855-11.651l-4.369-20.874c-1.456-5.825-7.282-9.709-13.107-8.253-1.456 0.485-2.427 0.971-3.398 1.456l-17.962 11.165c-3.884 2.427-5.825 7.282-4.855 11.651l4.369 20.874c1.456 5.825 7.282 9.709 13.107 8.253 1.456-0.485 2.427-0.971 3.398-1.456l17.962-11.165z" />
<glyph unicode="&#xe937;" d="M753.755 574.703l-10.68-6.796c-1.942-0.971-2.427-2.913-1.942-5.34l2.427-12.622c0.485-2.427 2.913-4.369 5.825-3.884 0.485 0 0.971 0.485 1.456 0.485l10.68 6.796c1.942 0.971 2.427 2.913 1.942 5.34l-2.427 12.622c-0.485 2.427-2.913 4.369-5.825 3.884-0.485 0-0.971 0-1.456-0.485z" />
<glyph unicode="&#xe938;" d="M757.153 580.528c0.485 0 0.971 0.485 0.971 0.485 1.942 0.485 3.884-0.971 4.369-2.913l4.369-20.874c0.485-1.456-0.485-2.913-1.456-3.884l-17.962-11.165c-0.485 0-0.971-0.485-0.971-0.485-1.942-0.485-3.884 0.971-4.369 2.913l-4.369 20.874c-0.485 1.456 0.485 2.913 1.456 3.884l17.962 11.165zM753.27 586.839l-17.962-11.165c-3.884-2.427-5.825-7.282-4.855-11.651l4.369-20.874c1.456-5.825 7.282-9.709 13.107-8.253 1.456 0.485 2.427 0.971 3.398 1.456l17.962 11.165c3.884 2.427 5.825 7.282 4.855 11.651l-4.369 20.874c-1.456 5.825-7.282 9.709-13.107 8.253-0.971-0.485-2.427-0.971-3.398-1.456zM311.023 334.404v7.282h160.685v-7.282zM541.127 334.404v7.282h160.685v-7.282zM504.718 558.683h7.282v-118.45h-7.282zM295.974 492.662l5.825 3.884 50.972-75.245-6.311-3.884zM716.375 492.662l-6.311 3.884-50.487-75.245 5.825-3.884z" />
<glyph unicode="&#xe939;" glyph-name="voice" d="M513.3 247.9c104.4 0 189.1 84.7 189.1 189.1v270.1c0 104.4-84.7 189.1-189.1 189.1s-189.1-84.7-189.1-189.1v-270.1c0-104.5 84.7-189.1 189.1-189.1zM810.4 382.9h-54c-24.6-108.2-127.4-189.1-243.1-189.1s-218.5 80.9-243.1 189.1h-54c23.8-129.6 136.7-229.8 270.1-241.9v-55.2h-27c-14.9 0-27-12.1-27-27s12.1-27 27-27h108c14.9 0 27 12.1 27 27s-12.1 27-27 27h-27v55.2c133.4 12.1 246.3 112.3 270.1 241.9z" />
<glyph unicode="&#xe93a;" glyph-name="voiceDis" d="M701 776.9c-27.9 69.6-95.7 118.9-175.2 118.9-104.4 0-189-84.6-189-189l-0.1-278.3 364.3 348.4zM768.8 382.8c-24.6-108.2-127.4-189-243-189-52.4 0-101.6 17.2-142.6 45.4l-37.9-38.4c44.1-32.7 96.7-54.6 153.6-59.7v-55.2h-26.3c-15.2 0-27.9-12.4-27.6-27.6 0.3-14.7 12.3-26.4 27-26.4h108c14.7 0 26.7 11.8 27 26.4 0.3 15.2-12.5 27.6-27.6 27.6h-26.3v55.1c133.3 12 246.1 112.2 270 241.8h-54.3zM241.7 336l42.3 42.8c-0.3 1.3-1 2.5-1.3 3.9h-53.9c3-16 7.3-31.6 12.9-46.7zM811.4 814.4l-636.8-609.7 38.5-38 637 609.4-38.7 38.3zM714.8 436.8v142l-304.1-290.9c32-24.8 71.6-40.1 115.1-40.1 104.4 0 189 84.6 189 189z" />
<glyph unicode="&#xe93b;" glyph-name="wallet" d="M322.2 654.5c0 11.5 9.3 20.8 20.8 20.8h338.2c11.5 0 20.8-9.3 20.8-20.8v-1.8c0-11.5-9.3-20.8-20.8-20.8h-338.2c-11.5 0-20.8 9.3-20.8 20.8v1.8zM307.2 654.5c0 11.5 9 20.8 20 20.8h324.8c11 0 20-9.3 20-20.8v-1.8c0-11.5-9-20.8-20-20.8h-324.8c-11 0-20 9.3-20 20.8v1.8zM814.1 29h-605.6v302.8c0 115.8 64.2 219.4 167.7 271h83.4l-19.1-49.8c-2.9-7.5 0.9-15.9 8.3-18.8 1.7-0.7 3.5-1 5.2-1 5.8 0 11.3 3.5 13.6 9.3l23.2 60.3h41.2l23.2-60.3c2.2-5.8 7.7-9.3 13.6-9.3 1.7 0 3.5 0.3 5.2 1 7.5 2.9 11.2 11.3 8.3 18.8l-19.3 49.9h83.4c103.5-51.7 167.7-155.2 167.7-271v-302.9zM784.9 29h-575.6v302.8c0 115.8 64.2 219.4 167.7 271h83.4l-19.2-49.8c-2.9-7.5 0.9-15.9 8.3-18.8 1.7-0.7 3.5-1 5.2-1 5.8 0 11.3 3.5 13.6 9.3l23.2 60.3h41.2l23.2-60.3c2.2-5.8 7.7-9.3 13.6-9.3 1.7 0 3.5 0.3 5.2 1 7.5 2.9 11.2 11.3 8.3 18.8l-19.2 49.9h53.4c103.5-51.7 167.7-155.2 167.7-271v-302.9zM512 172c-79.4 0-144 64.6-144 144s64.6 144 144 144 144-64.6 144-144-64.6-144-144-144zM512 394.7c28.6 0 52.8-15.2 52.8-33.3 0-6.7 5.5-12.2 12.2-12.2s12.2 5.5 12.2 12.2c0 29.2-27.7 52.7-65 57v14.5c0 6.7-5.4 12.2-12.2 12.2-6.7 0-12.2-5.5-12.2-12.2v-14.5c-37.3-4.2-65-27.7-65-57 0-32.3 33.9-57.7 77.2-57.7 28.6 0 52.8-15.2 52.8-33.3s-24.2-33.3-52.8-33.3c-28.6 0-52.8 15.2-52.8 33.3 0 6.7-5.4 12.2-12.2 12.2-6.7 0-12.2-5.5-12.2-12.2 0-29.2 27.7-52.7 65-57v-14.4c0-6.7 5.5-12.2 12.2-12.2s12.2 5.5 12.2 12.2v14.5c37.3 4.3 65 27.7 65 57 0 32.3-33.9 57.7-77.1 57.7-28.6 0-52.8 15.3-52.8 33.3-0.1 18 24.1 33.2 52.7 33.2zM791.8 510.2c-24.3 38.1-56 70.7-93 95.9 18.8 7.1 32.2 25.3 32.2 46.6v1.8c0 27.5-22.4 49.8-49.8 49.8h-61.2l76.5 171.3c2.2 4.9 1.5 10.6-1.8 14.8s-8.7 6.3-13.9 5.4l-167.7-29.3-169.8 29.3c-5.3 0.9-10.6-1.2-13.9-5.4s-4-9.9-1.8-14.8l76.4-171.3h-61.1c-27.5 0-49.8-22.4-49.8-49.8v-1.8c0-21.3 13.4-39.4 32.2-46.6-37-25.2-68.7-57.8-93-95.9-34-53.2-52-114.9-52-178.4v-317.3c0-8 6.5-14.5 14.5-14.5h634.6c8 0 14.5 6.5 14.5 14.5v317.3c-0.1 63.5-18.1 125.2-52.1 178.4zM435.7 704.6l-70.5 158 145.5-25.1c1.6-0.3 3.3-0.3 5 0l143.2 25.1-70.5-157.9c0-0.1-0.1-0.2-0.1-0.3h-24.5l19.2 49.9c2.9 7.5-0.9 15.9-8.3 18.8-7.5 2.9-15.9-0.9-18.8-8.3l-23.2-60.3h-41.2l-23.2 60.3c-2.9 7.5-11.3 11.2-18.8 8.3s-11.2-11.3-8.3-18.8l19.2-49.9h-24.5c-0.2 0-0.2 0.1-0.2 0.2zM322.1 654.5c0 11.5 9.3 20.8 20.8 20.8h338.2c11.5 0 20.8-9.3 20.8-20.8v-1.8c0-11.5-9.3-20.8-20.8-20.8h-338.2c-11.5 0-20.8 9.3-20.8 20.8v1.8zM814.8 29h-605.6v302.8c0 115.8 64.2 219.4 167.7 271h83.4l-19.2-49.8c-2.9-7.5 0.9-15.9 8.3-18.8 1.7-0.7 3.5-1 5.2-1 5.8 0 11.3 3.5 13.6 9.3l23.2 60.3h41.2l23.2-60.3c2.2-5.8 7.7-9.3 13.6-9.3 1.7 0 3.5 0.3 5.2 1 7.5 2.9 11.2 11.3 8.3 18.8l-19.2 49.9h83.4c103.5-51.7 167.7-155.2 167.7-271v-302.9zM512 489c-95.4 0-173-77.6-173-173s77.6-173 173-173 173 77.6 173 173-77.6 173-173 173zM512 172c-79.4 0-144 64.6-144 144s64.6 144 144 144 144-64.6 144-144-64.6-144-144-144zM757.1 200c8 0 14.5 6.5 14.5 14.5v135.9c0 8-6.5 14.5-14.5 14.5s-14.5-6.5-14.5-14.5v-135.8c0-8.1 6.5-14.6 14.5-14.6zM757.1 106.8c8 0 14.5 6.5 14.5 14.5v31.3c0 8-6.5 14.5-14.5 14.5s-14.5-6.5-14.5-14.5v-31.3c0-8 6.5-14.5 14.5-14.5zM435.7 704.6l-70.5 158 145.5-25.1c1.6-0.3 3.3-0.3 5 0l143.2 25.1-70.5-157.9c0-0.1-0.1-0.2-0.1-0.3h-24.5l19.2 49.9c2.9 7.5-0.9 15.9-8.3 18.8-7.5 2.9-15.9-0.9-18.8-8.3l-23.2-60.3h-41.2l-23.2 60.3c-2.9 7.5-11.3 11.2-18.8 8.3s-11.2-11.3-8.3-18.8l19.2-49.9h-24.5c-0.1 0-0.2 0.1-0.2 0.2z" />
<glyph unicode="&#xe93c;" glyph-name="warrant" d="M512 768c0.003 0 0.006 0 0.009 0 106.039 0 192-85.961 192-192s-85.961-192-192-192c-106.039 0-192 85.961-192 192 0 53.017 21.489 101.015 56.231 135.76v0c34.554 34.74 82.389 56.241 135.247 56.241 0.18 0 0.361 0 0.541-0.001h-0.028zM512 896c-176.73 0-320-143.27-320-320s143.27-320 320-320 320 143.27 320 320-143.27 320-320 320zM384 64l-64 160h-192l192 160 160-96-96-224zM640 64l64 160h192l-192 160-160-96 96-224z" />
<glyph unicode="&#xe93d;" glyph-name="weight" d="M915.406 426.986c-17.129 0-31.017-13.888-31.017-31.017v-248.139c0-39.907-32.465-72.374-72.374-72.374h-599.669c-39.907 0-72.374 32.465-72.374 72.374v248.139c0 17.129-13.888 31.017-31.017 31.017s-31.017-13.888-31.017-31.017v-248.139c0-74.116 60.293-134.409 134.409-134.409h599.669c74.116 0 134.409 60.293 134.409 134.409v248.139c-0.002 17.129-13.89 31.017-31.020 31.017zM812.015 881.907h-599.669c-74.116 0-134.409-60.293-134.409-134.409v-248.139c0-17.128 13.888-31.017 31.017-31.017s31.017 13.888 31.017 31.017v248.139c0 39.907 32.465 72.374 72.374 72.374h599.669c39.907 0 72.374-32.465 72.374-72.374v-248.139c0-17.128 13.888-31.017 31.017-31.017s31.017 13.888 31.017 31.017v248.139c0.002 74.115-60.29 134.409-134.407 134.409zM433.231 348.831c0 17.129-13.888 31.017-31.017 31.017s-31.017-13.888-31.017-31.017v-30.261c0-17.129 13.888-31.017 31.017-31.017 17.128 0 31.017 13.888 31.017 31.017v30.261zM654.64 318.571v30.261c0 17.129-13.888 31.017-31.017 31.017s-31.017-13.888-31.017-31.017v-30.261c0-17.129 13.888-31.017 31.017-31.017s31.017 13.887 31.017 31.017zM512.846 169.704c43.652 0 74.58 30.103 85.975 47.889 9.238 14.428 5.033 33.612-9.391 42.851-14.443 9.238-33.612 5.033-42.851-9.391-0.121-0.197-13.288-19.314-33.733-19.314-19.87 0-32.229 18.013-33.047 19.245-9.113 14.317-28.069 18.674-42.538 9.688-14.55-9.042-19.014-28.17-9.976-42.72 11.136-17.92 41.689-48.249 85.56-48.249zM737.732 445.573c9.84 1.752 18.235 8.132 22.546 17.149l79.713 166.588c5.705 11.919 3.231 26.146-6.169 35.439-4.231 4.185-106.133 102.524-321.644 102.524-215.516 0-317.414-98.338-321.65-102.524-9.395-9.294-11.869-23.52-6.164-35.439l79.709-166.588c4.311-9.016 12.5-15.595 22.339-17.347 1.873-0.332 3.746-0.5 5.604-0.5 7.896 0 15.474 2.978 21.269 8.628 0.51 0.46 52.67 46.091 198.891 46.091s198.377-45.634 198.473-45.698c7.154-6.97 17.21-10.071 27.080-8.323zM467.667 560.23l-26.387 80.37c-5.337 16.266-22.843 25.136-39.146 19.79-16.271-5.342-25.136-22.869-19.79-39.146l22.422-68.292c-46.082-8.101-78.527-20.552-99.972-31.6l-53.908 112.65c33.511 23.844 118.137 71.239 261.29 71.239 141.755 0 227.243-47.557 261.204-71.409l-53.821-112.483c-35.328 18.204-100.262 40.287-207.382 40.287-15.775 0-30.527-0.528-44.512-1.402z" />
</font>
</defs>
</svg>
